<svg viewBox="0 0 24 24" class="blk icn srv-icn mrg_rt clr-lnk" role="presentation" data-use="/cms/svg/site/74yhxrifyt9.24.svg#serv-immigration" xmlns="http://www.w3.org/2000/svg">
	<path d="M23.185 12.618l-2.458-6.145c0.912-0.278 1.807-0.972 1.901-1.578 0.034-0.219-0.117-0.425-0.336-0.459-0.219-0.034-0.425 0.116-0.459 0.336-0.054 0.271-1.039 1.024-1.876 1.024-1.595 0-2.653-0.634-3.773-1.307-1.076-0.646-2.188-1.312-3.783-1.407v-0.974c0-0.222-0.18-0.402-0.402-0.402s-0.402 0.18-0.402 0.402v0.974c-1.596 0.098-2.707 0.762-3.783 1.407-1.121 0.671-2.178 1.307-3.773 1.307-0.838 0-1.819-0.752-1.876-1.023-0.034-0.219-0.24-0.371-0.459-0.336-0.219 0.034-0.371 0.24-0.336 0.459 0.093 0.607 0.99 1.299 1.901 1.578l-2.458 6.145h-0.812v0.646c0 1.969 1.863 3.569 4.154 3.569s4.154-1.6 4.154-3.569v-0.646h-0.812l-2.438-6.097c1.277-0.206 2.237-0.781 3.17-1.34 1.023-0.613 1.996-1.196 3.369-1.291v12.857c-0.928 0.155-1.703 0.838-1.959 1.765-0.032 0.115-0.122 0.247-0.278 0.247h-0.772c-1.35 0-2.449 1.098-2.449 2.449v1.085h11.72v-1.085c0-1.35-1.098-2.449-2.449-2.449h-0.772c-0.155 0-0.246-0.134-0.278-0.247-0.255-0.928-1.031-1.609-1.959-1.765V3.888c1.374 0.097 2.346 0.678 3.369 1.291 0.933 0.559 1.893 1.134 3.17 1.34l-2.438 6.097h-0.812v0.646c0 1.969 1.863 3.569 4.154 3.569s4.154-1.6 4.154-3.569v-0.646h-0.812ZM4.152 16.027c-1.781 0-3.244-1.155-3.344-2.605h6.687c-0.101 1.451-1.562 2.605-3.344 2.605ZM6.627 12.618h-4.949l2.407-6.017c0.045 0 0.09-0.001 0.135-0.003l2.408 6.02ZM13.581 18.723c0.139 0.503 0.562 0.839 1.055 0.839h0.772c0.907 0 1.644 0.737 1.644 1.644v0.281h-10.11v-0.281c0-0.907 0.737-1.644 1.644-1.644h0.772c0.492 0 0.916-0.338 1.055-0.839 0.195-0.71 0.848-1.206 1.585-1.206s1.39 0.496 1.585 1.206ZM19.775 6.598c0.045 0 0.089 0.003 0.135 0.003l2.407 6.017h-4.949l2.408-6.02ZM19.842 16.027c-1.781 0-3.244-1.155-3.344-2.605h6.687c-0.101 1.451-1.562 2.605-3.344 2.605Z"></path>
</svg>