<svg viewBox="0 0 24 24" class="blk icn srv-icn mrg_rt clr-lnk" role="presentation" data-use="/cms/svg/site/74yhxrifyt9.24.svg#serv-citizenship" xmlns="http://www.w3.org/2000/svg">
	<path class="cls-1" d="M24.001 6.006h-0.124s0.124-0.001 0.124-0.001v-0.015c0-0.024 0-0.046-0.005-0.069-0.007-0.038-0.02-0.069-0.032-0.095l-0.117 0.04h0l0.108-0.063c-0.008-0.024-0.018-0.045-0.032-0.065-0.018-0.029-0.041-0.051-0.058-0.069l-0.087 0.087l0.069-0.107c-0.016-0.018-0.034-0.034-0.053-0.05l-0.029-0.025c-1.656-1.019-3.885-0.565-5.683-0.198-0.232 0.048-0.459 0.094-0.676 0.135-2.416 0.461-4.256-0.269-6.275-1.503-1.486-0.909-3.093-1.787-4.936-1.705l0.084-0.325c0.034-0.133 0.015-0.272-0.054-0.391-0.069-0.119-0.182-0.203-0.315-0.238-0.133-0.034-0.272-0.015-0.391 0.054-0.119 0.069-0.203 0.182-0.238 0.315l-5.266 20.305c-0.034 0.133-0.015 0.272 0.054 0.391 0.069 0.119 0.182 0.203 0.314 0.236 0.042 0.012 0.086 0.016 0.131 0.016 0.235 0 0.438-0.158 0.499-0.385l2.436-9.398c1.164-0.086 2.414 0.274 3.919 1.122 0.399 0.226 0.78 0.487 1.185 0.765 0.714 0.491 1.453 1 2.316 1.3 0.534 0.186 1.107 0.276 1.75 0.276 0.872 0 1.741-0.17 2.548-0.355 1.969-0.449 4.017-0.806 5.483 0.156l0.021 0.016h0.003c0.05 0.037 0.104 0.061 0.164 0.077 0.274 0.071 0.557-0.1 0.627-0.37l2.522-9.726c0.005-0.015 0.005-0.029 0.005-0.038 0.007-0.038 0.005-0.071 0.005-0.1ZM14.03 13.899c0.525 0 1.064-0.053 1.602-0.156 0.219-0.041 0.447-0.09 0.681-0.137l0.016-0.003c1.586-0.325 3.381-0.692 4.682-0.065l-0.371 1.433c-1.735-0.787-3.847-0.406-5.698 0.015h0c-1.182 0.271-2.542 0.523-3.732 0.111-0.731-0.253-1.38-0.701-2.072-1.176-0.403-0.277-0.82-0.565-1.262-0.813-0.978-0.552-2.449-1.27-4.106-1.27-0.016 0-0.033 0-0.05 0l0.33-1.274c1.647-0.153 3.162 0.676 4.574 1.541 1.449 0.886 3.221 1.792 5.403 1.792h0ZM16.123 12.597c-0.235 0.048-0.463 0.094-0.685 0.137-2.416 0.461-4.256-0.267-6.275-1.503-1.423-0.87-2.951-1.71-4.699-1.71-0.048 0-0.094 0-0.143 0.001l0.346-1.333c1.741-0.271 3.341 0.595 4.835 1.507 1.449 0.886 3.221 1.792 5.403 1.792h0c0.525 0 1.064-0.053 1.602-0.156 0.223-0.042 0.454-0.09 0.697-0.139 1.493-0.305 3.182-0.649 4.458-0.165l-0.389 1.502c-1.586-0.661-3.558-0.259-5.149 0.066ZM10.467 9.07c-0.143-0.082-0.284-0.165-0.428-0.253-1.427-0.872-2.959-1.713-4.699-1.713-0.131 0-0.263 0.005-0.395 0.015l0.975-3.761c1.677-0.197 3.228 0.647 4.672 1.53 0.263 0.16 0.542 0.323 0.833 0.482l-0.961 3.702ZM16.316 10.321c-1.684 0.322-3.206 0.091-4.916-0.75l0.367-1.413c1.318 0.622 2.565 0.924 3.806 0.924 0.528 0 1.054-0.051 1.609-0.157 0.205-0.038 0.416-0.082 0.632-0.125l0.065-0.013c1.475-0.302 3.141-0.644 4.413-0.179l-0.37 1.425c-1.547-0.536-3.415-0.156-4.922 0.153-0.235 0.048-0.463 0.094-0.684 0.137ZM17.644 7.782c-0.226 0.046-0.446 0.091-0.657 0.131-1.708 0.325-3.195 0.094-4.957-0.776l0.337-1.296c1.256 0.57 2.414 0.837 3.629 0.837 0.525 0 1.062-0.053 1.602-0.156 0.216-0.041 0.442-0.087 0.673-0.135l0.024-0.005c1.555-0.317 3.31-0.676 4.599-0.106l-0.344 1.33c-1.539-0.515-3.386-0.137-4.878 0.169l-0.026 0.005Z"></path>
</svg>