<svg viewBox="0 0 24 24" class="blk icn srv-icn mrg_rt clr-lnk" role="presentation" data-use="/cms/svg/site/74yhxrifyt9.24.svg#serv-status" xmlns="http://www.w3.org/2000/svg">
	<path class="cls-1" d="M18.845 3.775h-11.862l8.152-2.789c0.159-0.049 0.309-0.028 0.422 0.054 0.134 0.1 0.207 0.279 0.207 0.504v1.093h0.96v-1.093c0-0.53-0.218-0.993-0.597-1.275-0.358-0.266-0.822-0.339-1.288-0.197l-10.897 3.726c-0.193 0.067-0.325 0.25-0.325 0.454v19.267c0 0.266 0.215 0.48 0.48 0.48h14.747c0.847 0 1.539-0.691 1.539-1.539v-17.149c0-0.847-0.691-1.539-1.539-1.539ZM19.424 22.463c0 0.32-0.259 0.579-0.579 0.579h-14.267v-18.307h14.267c0.32 0 0.579 0.259 0.579 0.579v17.149ZM11.999 7.959c-3.276 0-5.928 2.655-5.928 5.928s2.655 5.928 5.928 5.928 5.93-2.655 5.93-5.928-2.655-5.928-5.93-5.928ZM17.023 13.413h-1.741c-0.003-0.052-0.003-0.105-0.006-0.159-0.125-1.823-0.946-3.249-1.618-4.13 1.825 0.638 3.177 2.297 3.365 4.288ZM11.519 13.413h-1.842c0-0.027 0-0.054 0.003-0.082 0.133-1.984 1.253-3.469 1.838-4.119v4.2ZM11.519 14.373v4.035c-1.06-1.336-1.669-2.688-1.817-4.035h1.817ZM12.479 14.373h1.817c-0.148 1.347-0.757 2.7-1.817 4.035v-4.035ZM12.479 13.413v-4.201c0.584 0.643 1.703 2.119 1.838 4.109 0.001 0.031 0.001 0.063 0.003 0.092h-1.842ZM10.341 9.123c-0.672 0.882-1.493 2.309-1.618 4.13-0.003 0.052-0.003 0.105-0.006 0.159h-1.741c0.187-1.992 1.537-3.651 3.365-4.288ZM6.978 14.373h1.761c0.138 1.466 0.742 2.921 1.808 4.35-1.928-0.581-3.373-2.285-3.572-4.35ZM13.452 18.72c1.065-1.426 1.671-2.882 1.808-4.35h1.761c-0.197 2.064-1.644 3.769-3.572 4.35Z"></path>
</svg>