<svg viewBox="0 0 24 24" class="blk icn ta_" role="presentation" data-use="/cms/svg/site/74yhxrifyt9.24.svg#val-immigration" xmlns="http://www.w3.org/2000/svg">
	<path d="M23.414 11.758c-0.246-0.332-0.73-0.611-1.333-0.702 0.267-0.831 0.404-1.698 0.404-2.585 0-4.673-3.801-8.471-8.471-8.471s-8.471 3.801-8.471 8.471c0 1.673 0.482 3.279 1.399 4.665-0.295 0.184-0.562 0.395-0.776 0.596l-1.73 1.73l-0.723-0.723c-0.158-0.158-0.414-0.158-0.572 0l-2.52 2.52c-0.158 0.158-0.158 0.414 0 0.572l6.051 6.051c0.079 0.079 0.183 0.118 0.286 0.118s0.207-0.039 0.286-0.118l2.52-2.52c0.158-0.158 0.158-0.414 0-0.572l-0.714-0.714c0.101-0.065 0.227-0.106 0.429-0.106h7.058c0.869 0 4.302-3.627 4.336-3.665 0.394-0.442 2.103-3.002 2.591-4.144 0.057-0.132 0.039-0.285-0.047-0.4ZM21.666 8.066h-2.441l-1.899-1.899c-0.076-0.076-0.179-0.118-0.286-0.118h-3.124v-0.603c0-0.61 0.497-1.107 1.107-1.107h1.513c0.106 0 0.21-0.041 0.286-0.118l0.891-0.891h1.849v-0.137c1.223 1.283 2.007 2.99 2.106 4.875ZM7.565 4.338h1.405c0.334 0 0.603 0.271 0.603 0.603v1.107h-0.603c-0.106 0-0.21 0.041-0.286 0.118l-1.009 1.009c-0.076 0.076-0.118 0.179-0.118 0.286v0.337l-0.772 0.771h-0.434c0-0.034-0.001-0.066-0.001-0.098 0-1.522 0.447-2.94 1.216-4.133ZM6.404 9.381h0.55c0.106 0 0.21-0.041 0.286-0.118l1.009-1.009c0.076-0.076 0.118-0.179 0.118-0.286v-0.337l0.771-0.772h0.84c0.223 0 0.404-0.181 0.404-0.404v-1.513c0-0.778-0.635-1.413-1.413-1.413h-0.806c1.406-1.663 3.507-2.72 5.848-2.72 1.825 0 3.503 0.642 4.819 1.711h-1.29c-0.106 0-0.21 0.041-0.286 0.118l-0.891 0.891h-1.346c-1.057 0-1.917 0.86-1.917 1.917v1.009c0 0.223 0.181 0.404 0.404 0.404h3.362l1.899 1.899c0.076 0.076 0.179 0.118 0.286 0.118h2.61c-0.039 0.749-0.186 1.479-0.438 2.181-0.08 0.012-0.163 0.026-0.247 0.045-1.044 0.243-1.634 0.986-2.226 2.111l-1.79 0.931c-0.322-0.317-0.803-0.531-1.438-0.531h-2.651c-0.093-0.026-0.337-0.21-0.497-0.335-0.413-0.316-0.881-0.673-1.388-0.673h-2.52c-0.259 0-0.53 0.062-0.798 0.163-0.692-1.018-1.122-2.173-1.267-3.388ZM6.954 23.024l-5.478-5.478l1.949-1.949l5.478 5.478l-1.949 1.949ZM20.265 15.765c-0.616 0.692-3.213 3.205-3.761 3.394h-7.03c-0.495 0-0.8 0.167-1.008 0.338l-3.464-3.464l1.721-1.721c0.479-0.447 1.232-0.9 1.741-0.9h2.52c0.234 0 0.616 0.293 0.896 0.506 0.351 0.269 0.654 0.502 0.978 0.502h2.665c0.765 0 1.107 0.43 1.107 0.856s-0.343 0.856-1.107 0.856h-4.034v0.809h4.034c1.259 0 1.917-0.837 1.917-1.665 0-0.148-0.023-0.295-0.063-0.439l1.862-0.966c0.075-0.039 0.135-0.098 0.174-0.175 0.603-1.176 1.062-1.647 1.748-1.808 0.632-0.145 1.155 0.003 1.438 0.199-0.562 1.137-2.009 3.309-2.336 3.675ZM3.137 17.832l0.572-0.572l1.009 1.009l-0.572 0.572l-1.009-1.009ZM13.104 10.992v-1.009c0-1.057 0.86-1.917 1.917-1.917h2.019c0.106 0 0.21 0.041 0.286 0.118l2.014 2.018c0.076 0.076 0.118 0.179 0.118 0.286v1.009h-0.809v-0.84l-1.777-1.779h-1.852c-0.61 0-1.107 0.497-1.107 1.107v1.009c0 0.054 0.045 0.098 0.098 0.098h1.009c0.106 0 0.21 0.041 0.286 0.118l1.009 1.009c0.076 0.076 0.118 0.179 0.118 0.286v0.504h-0.809v-0.337l-0.771-0.771h-0.84c-0.502 0-0.908-0.408-0.908-0.908ZM8.634 9.885l-0.891 0.891l-0.572-0.572l1.009-1.009c0.076-0.076 0.179-0.118 0.286-0.118h0.504c0.106 0 0.21 0.041 0.286 0.118l1.009 1.009c0.076 0.076 0.118 0.179 0.118 0.286v0.504c0 0.106-0.041 0.21-0.118 0.286l-1.009 1.009l-0.572-0.572l0.891-0.891v-0.168l-0.772-0.771h-0.168Z"></path>
</svg>