<svg width="21" height="21" xmlns="http://www.w3.org/2000/svg" class="app-icon size-18"><path fill-rule="evenodd" clip-rule="evenodd" d="M10.5 2.625c2.0905 0 4.095.83045 5.5698 2.30522v-.00716c1.4747 1.47477 2.3052 3.4793 2.3052 5.56974 0 2.0905-.8305 4.095-2.3052 5.5698-1.4748 1.4747-3.4793 2.3052-5.5698 2.3052H3.26937c-.08591 0-.16466-.0215-.24341-.0501-.07874-.0287-.15034-.0788-.20761-.1361-.06443-.0572-.10738-.1288-.14318-.2076-.03579-.0716-.05011-.1646-.05011-.2434 0-.0787.01432-.1646.05011-.2434.0358-.0787.08591-.1503.14318-.2076l1.67522-1.6824C3.28369 14.1797 2.6179 12.3685 2.62506 10.5c0-2.09048.83045-4.09501 2.30522-5.56978C6.40504 3.45545 8.40958 2.625 10.5 2.625ZM6.125 13.3079 8.6436 7h1.30956l2.49944 6.3079h-1.5632l-.4529-1.2082H8.6786l.39454-1.1527h.93126l-.31417-.8381c-.04846-.12659-.09662-.26084-.14508-.40469-.04845-.14381-.09661-.29149-.14507-.44111-.04107-.13164-.08193-.26057-.12294-.38437-.03823.12751-.07789.25518-.12085.38437-.04247.1381-.09093.28004-.14507.42385-.05414.13811-.10649.28196-.15464.43345L7.6571 13.3099H6.125v-.002Zm6.846 0-.5088-1.2888h-.0116V8.28883h.0059V7H14v1.28883h-.0039v3.73027H14v1.2888h-1.029Z" fill="#fff"></path></svg>