<svg viewBox="0 0 24 24" class="blk icn icn mrg_bt-20 clr-lnk" role="presentation" data-use="/cms/svg/site/74yhxrifyt9.24.svg#cta-get-in-touch" xmlns="http://www.w3.org/2000/svg">
	<path d="M16.938 15.222l-0.25-0.104l-2.117 2.117c-0.628-0.216-2.434-0.98-4.638-3.186-2.204-2.204-2.969-4.011-3.186-4.638l2.117-2.117l-0.104-0.25c-0.739-1.763-2.058-3.741-3.44-5.162l-0.165-0.167l-0.227 0.059c-1.275 0.335-2.833 0.853-4.741 2.156l-0.187 0.128l0.013 0.227c0.058 1.063 0.659 6.682 6.832 12.852 6.17 6.17 11.789 6.773 12.852 6.832l0.227 0.013l0.128-0.187c1.301-1.906 1.819-3.466 2.156-4.741l0.059-0.227l-0.167-0.165c-1.419-1.383-3.397-2.702-5.162-3.44ZM19.518 23.147c-1.249-0.121-6.472-0.95-12.101-6.58s-6.459-10.854-6.58-12.101c1.609-1.064 2.951-1.543 4.071-1.852 1.193 1.27 2.318 2.952 3.006 4.495l-2.068 2.068l0.059 0.224c0.108 0.401 0.779 2.535 3.462 5.216 2.681 2.681 4.815 3.354 5.216 3.462l0.224 0.059l2.068-2.068c1.543 0.688 3.225 1.813 4.493 3.006-0.308 1.12-0.786 2.462-1.852 4.071ZM15.989 8.03c-0.822-0.822-1.913-1.274-3.073-1.274v-0.805c1.377 0 2.669 0.536 3.642 1.508 0.972 0.972 1.508 2.267 1.508 3.642h-0.805c0-1.16-0.452-2.253-1.274-3.073ZM18.085 5.933c-1.381-1.381-3.218-2.14-5.171-2.14v-0.805c2.169 0 4.206 0.845 5.739 2.377 1.533 1.533 2.377 3.573 2.377 5.739h-0.805c0-1.952-0.76-3.789-2.14-5.171ZM24.001 11.104h-0.805c0-2.746-1.069-5.327-3.011-7.269s-4.523-3.011-7.269-3.011V0.018c2.961 0 5.744 1.153 7.838 3.247 2.093 2.094 3.247 4.879 3.247 7.838Z"></path>
</svg>