<svg viewBox="0 0 24 24" class="blk icn clr-btn" role="presentation" data-use="/cms/svg/site/74yhxrifyt9.24.2508141034598.svg#search" xmlns="http://www.w3.org/2000/svg">
	<path d="M2.771 8.945a6.153 6.153 0 1 1 1.802 4.376A5.954 5.954-858.836 0 1 2.771 8.945Zm13.317 6.177l-0.384-0.384a8.546 8.546 0 0 0 2.124-5.792a8.69 8.69 0 0 0-2.574-6.338a8.524 8.524 0 0 0-6.306-2.606a8.9 8.9 0 0 0-8.947 8.945a8.521 8.521 0 0 0 2.607 6.306a8.681 8.681 0 0 0 6.338 2.574a8.546 8.546 0 0 0 5.792-2.123l0.384 0.384v1.094l6.818 6.818l2.06-2.06l-6.818-6.818Z"></path>
</svg>