<svg fill="none" xmlns="http://www.w3.org/2000/svg" class="app-icon size-19 dimmed-icon"><path fill-rule="evenodd" clip-rule="evenodd" d="M15.7968 0H3.20322C1.71018 0 .5 1.24307.5 2.7767v10.2946c-.000326 1.2572.82286 2.3577 2.00572 2.6809.33364.0911.56571.4015.56571.7561v.9905c.00193.279.22404.5035.49564.5012.09997-.0007.19736-.0327.279-.0918l2.1375-1.5683c.44775-.3232.98261-.4952 1.53-.4919h8.28323c1.493 0 2.7032-1.2431 2.7032-2.7767V2.7767C18.5 1.24308 17.2898 0 15.7968 0Zm-5.6544 11.8862H4.35673c-.35518 0-.64286-.2955-.64286-.6604 0-.3648.28767-.6603.64286-.6603h5.78567c.3552 0 .6429.2955.6429.6603 0 .3649-.2877.6604-.6429.6604Zm4.5-3.30202H4.35673c-.35518 0-.64286-.2955-.64286-.66034 0-.36482.28767-.66033.64286-.66033H14.6424c.3552 0 .6429.29549.6429.66033 0 .36483-.2877.66034-.6429.66034Zm0-3.30136H4.35673c-.35518 0-.64286-.29549-.64286-.66033 0-.36483.28767-.66034.64286-.66034H14.6424c.3552 0 .6429.2955.6429.66034 0 .36483-.2877.66033-.6429.66033Z"></path></svg>