<svg viewBox="0 0 24 24" class="blk icn srv-icn mrg_rt clr-lnk" role="presentation" data-use="/cms/svg/site/74yhxrifyt9.24.svg#serv-employment" xmlns="http://www.w3.org/2000/svg">
	<path d="M24 4.689c0-0.222-0.18-0.402-0.402-0.402H0.402c-0.222 0-0.402 0.18-0.402 0.402v6.05c0 0.736 0.18 1.417 0.504 2.017 0 0 0 0 0 0v9.581c0 0.222 0.18 0.402 0.402 0.402h22.187c0.222 0 0.402-0.18 0.402-0.402v-9.581s0 0 0 0c0.323-0.599 0.504-1.281 0.504-2.015V4.689ZM0.806 5.092h22.389v5.647c0 2.069-1.778 3.631-4.135 3.631h-0.606v-1.109c0-0.222-0.18-0.402-0.402-0.402h-2.52c-0.222 0-0.402 0.18-0.402 0.402v1.109h-6.255v-1.109c0-0.222-0.18-0.402-0.402-0.402h-2.52c-0.222 0-0.402 0.18-0.402 0.402v1.109h-0.611c-2.356 0-4.13-1.56-4.13-3.631V5.092ZM15.932 13.664h1.715v2.219h-1.715v-2.219ZM6.352 13.664h1.715v2.219h-1.715v-2.219ZM1.31 21.934v-8.125c0.888 0.85 2.164 1.367 3.626 1.367h0.611v1.109c0 0.222 0.18 0.402 0.402 0.402h2.52c0.222 0 0.402-0.18 0.402-0.402v-1.109h6.255v1.109c0 0.222 0.18 0.402 0.402 0.402h2.52c0.222 0 0.402-0.18 0.402-0.402v-1.109h0.606c1.466 0 2.742-0.517 3.631-1.368v8.126H1.31ZM8.874 3.681h-0.805v-0.504c0-1.057 0.858-1.915 1.915-1.915h3.529c1.057 0 1.915 0.858 1.915 1.915v0.504h-0.805v-0.504c0-0.612-0.497-1.109-1.109-1.109h-3.529c-0.612 0-1.109 0.497-1.109 1.109v0.504Z"></path>
</svg>