<svg viewBox="0 0 24 24" class="blk icn icn mrg_bt-20 clr-lnk" role="presentation" data-use="/cms/svg/site/74yhxrifyt9.24.svg#cta-success" xmlns="http://www.w3.org/2000/svg">
	<path d="M11.442 15.239l3.098-3.072c0.207-0.206 0.276-0.505 0.178-0.784s-0.343-0.464-0.634-0.49l-4.191-0.374l-1.833-4.02h0c-0.122-0.269-0.384-0.437-0.678-0.437-0.296 0-0.555 0.168-0.678 0.437l-1.833 4.02l-4.191 0.374c-0.291 0.026-0.535 0.214-0.634 0.49-0.101 0.276-0.032 0.575 0.175 0.781l3.098 3.075l-0.773 3.971c-0.054 0.281 0.053 0.562 0.281 0.736 0.227 0.174 0.528 0.201 0.784 0.075l3.771-1.88l3.771 1.895c0.106 0.053 0.22 0.08 0.335 0.08 0.16 0 0.316-0.052 0.45-0.152 0.229-0.173 0.336-0.454 0.282-0.736l-0.773-3.99ZM7.56 17.334c-0.057-0.028-0.119-0.044-0.18-0.044s-0.122 0.014-0.179 0.041l-3.843 1.915l0.791-4.062c0.026-0.131-0.015-0.268-0.111-0.362l-3.159-3.137l4.297-0.384c0.144-0.013 0.271-0.102 0.33-0.233l1.875-4.113l1.875 4.113c0.059 0.131 0.187 0.22 0.33 0.233l4.297 0.384l-3.159 3.132c-0.095 0.095-0.137 0.231-0.111 0.362l0.791 4.083l-3.842-1.931ZM17.148 16.268c0.05 0.259-0.05 0.518-0.259 0.678-0.122 0.093-0.268 0.14-0.414 0.14-0.104 0-0.211-0.024-0.309-0.075l-3.274-1.645l0.361-0.72l3.057 1.535l-0.629-3.245c-0.026-0.131 0.015-0.268 0.111-0.362l2.512-2.49l-3.413-0.304c-0.144-0.013-0.271-0.102-0.33-0.233l-1.49-3.271l-1.49 3.271l-0.733-0.334l1.599-3.507c0.113-0.247 0.353-0.401 0.625-0.401s0.513 0.155 0.625 0.401l1.501 3.294l3.433 0.307c0.269 0.024 0.492 0.196 0.585 0.451s0.028 0.53-0.162 0.72l-2.54 2.52l0.633 3.271ZM23.798 9.056l-2.54 2.52l0.633 3.271c0.05 0.259-0.05 0.518-0.259 0.678-0.122 0.093-0.268 0.14-0.414 0.14-0.104 0-0.211-0.024-0.309-0.075l-3.274-1.645l0.361-0.72l3.057 1.535l-0.629-3.245c-0.026-0.131 0.015-0.268 0.111-0.362l2.512-2.49l-3.413-0.304c-0.144-0.013-0.271-0.102-0.33-0.233l-1.49-3.271l-1.49 3.271l-0.733-0.334l1.599-3.507c0.113-0.247 0.353-0.401 0.625-0.401 0.272 0 0.513 0.155 0.625 0.401l1.501 3.294l3.433 0.307c0.269 0.024 0.492 0.196 0.585 0.451 0.092 0.255 0.028 0.53-0.162 0.72Z"></path>
</svg>