<svg viewBox="0 0 24 24" class="blk icn ta_" role="presentation" data-use="/cms/svg/site/74yhxrifyt9.24.svg#val-free-consults" xmlns="http://www.w3.org/2000/svg">
	<path d="M23.875 9.389l-5.753-5.753c-0.157-0.157-0.412-0.157-0.569 0l-1.852 1.852c-0.076 0.076-0.117 0.178-0.117 0.285s0.041 0.209 0.117 0.285l0.115 0.115l-0.053 0.053c-0.361 0.361-1.167 0.488-1.751 0.488h-2.52c-0.443 0-0.734 0.058-1.101 0.374-0.008 0.006-0.015 0.014-0.024 0.023l-0.211 0.214c-0.419-0.349-0.76-0.489-1.068-0.616-0.29-0.117-0.551-0.225-0.888-0.502l0.207-0.207c0.157-0.157 0.157-0.412 0-0.569l-1.852-1.852c-0.157-0.157-0.412-0.157-0.569 0L0.118 9.447c-0.157 0.157-0.157 0.412 0 0.569l1.852 1.852c0.079 0.079 0.182 0.117 0.285 0.117s0.206-0.039 0.285-0.117l0.325-0.325c0.422 0.531 0.439 0.938 0.457 1.396 0.018 0.465 0.04 0.98 0.471 1.566l-0.496 0.475c-0.526 0.509-0.54 1.353-0.032 1.879 0.219 0.227 0.504 0.366 0.812 0.399-0.033 0.372 0.085 0.759 0.366 1.046 0.247 0.258 0.581 0.402 0.938 0.407 0.008 0 0.014 0 0.023 0 0.077 0 0.155-0.008 0.231-0.021 0.041 0.252 0.157 0.496 0.347 0.694 0.246 0.259 0.578 0.406 0.934 0.415 0.012 0 0.023 0 0.033 0 0.247 0 0.484-0.067 0.694-0.196 0.063 0.178 0.161 0.345 0.301 0.487 0.25 0.256 0.582 0.399 0.94 0.402 0.005 0 0.01 0 0.015 0 0.35 0 0.683-0.135 0.933-0.38l0.354-0.343c0.015-0.014 0.028-0.031 0.044-0.046 0.25 0.174 0.607 0.422 0.868 0.582 0.247 0.155 0.527 0.233 0.812 0.233 0.167 0 0.336-0.027 0.502-0.082 0.425-0.139 0.799-0.441 1.05-0.835 0.119 0.028 0.238 0.044 0.359 0.044s0.229-0.013 0.345-0.039c0.518-0.117 0.982-0.491 1.332-1.063 0.053 0.005 0.103 0.01 0.153 0.01 0.147 0 0.277-0.021 0.386-0.052 0.613-0.165 1.061-0.68 1.313-1.097 0.057 0.006 0.113 0.012 0.167 0.012 0.438 0 0.824-0.22 1.083-0.536 0.354-0.43 0.495-1.061 0.246-1.556 1.265-1.226 1.454-1.944 1.608-2.525 0.093-0.358 0.156-0.594 0.483-0.921l0.309-0.309l0.214 0.214c0.076 0.076 0.178 0.117 0.285 0.117s0.209-0.041 0.285-0.117l1.852-1.852c0.157-0.157 0.157-0.412 0-0.569ZM2.255 11.013l-1.282-1.282l5.302-5.302l1.282 1.282l-5.302 5.302ZM3.858 15.559l0.523-0.502c0.098-0.095 0.227-0.147 0.362-0.147 0.003 0 0.006 0 0.01 0 0.14 0.001 0.271 0.059 0.366 0.157l0.006 0.006c0.18 0.187 0.193 0.474 0.045 0.675l-0.59 0.574c-0.1 0.09-0.224 0.137-0.361 0.137-0.142-0.003-0.273-0.059-0.372-0.161-0.201-0.207-0.195-0.541 0.012-0.741ZM5.396 17.909c-0.142-0.001-0.273-0.059-0.372-0.161-0.201-0.207-0.195-0.541 0.013-0.745l0.088-0.085c0.01-0.01 0.021-0.018 0.028-0.026l0.518-0.497c0.037-0.036 0.07-0.072 0.102-0.109l0.783-0.763c0.098-0.095 0.227-0.147 0.362-0.147 0.003 0 0.006 0 0.01 0 0.14 0.001 0.269 0.059 0.363 0.156l0.008 0.01c0.195 0.201 0.193 0.52 0.003 0.723l-1.274 1.244c-0.01 0.008-0.018 0.018-0.026 0.027l-0.231 0.224c-0.102 0.098-0.237 0.149-0.376 0.149ZM6.936 18.997c-0.142-0.003-0.273-0.062-0.371-0.165-0.195-0.206-0.191-0.528 0.012-0.733l1.27-1.239c0.013-0.013 0.024-0.026 0.037-0.04l0.093-0.091c0.098-0.093 0.225-0.144 0.359-0.144 0.005 0 0.008 0 0.013 0 0.14 0.003 0.269 0.062 0.366 0.162l0.005 0.005c0.198 0.209 0.191 0.542-0.023 0.746l-0.513 0.501l-0.222 0.216s-0.01 0.012-0.014 0.015l-0.636 0.621c-0.103 0.098-0.233 0.149-0.379 0.147ZM9.269 19.539c-0.102 0.098-0.238 0.155-0.375 0.152-0.142 0-0.273-0.058-0.372-0.16-0.2-0.205-0.198-0.531 0-0.733l0.22-0.214l0.147-0.142c0.098-0.097 0.227-0.149 0.366-0.149 0.001 0 0.003 0 0.006 0 0.14 0 0.271 0.058 0.362 0.153l0.01 0.01c0.201 0.207 0.198 0.54-0.006 0.741l-0.354 0.343ZM17.975 16.395c-0.117 0.142-0.345 0.325-0.678 0.198-0.001 0-0.003-0.001-0.005-0.003-0.003 0-0.006-0.001-0.01-0.003-0.076-0.031-0.157-0.077-0.245-0.144-0.726-0.623-3.053-2.849-3.077-2.872-0.161-0.155-0.415-0.148-0.568 0.013-0.155 0.161-0.148 0.415 0.013 0.568 0.097 0.093 2.382 2.28 3.117 2.91l0.013 0.012c0.019 0.014 0.039 0.028 0.058 0.041-0.18 0.268-0.456 0.554-0.768 0.638-0.237 0.063-0.477 0-0.733-0.191-0.723-0.618-2.223-2.04-2.24-2.055-0.161-0.153-0.415-0.147-0.568 0.015-0.153 0.161-0.147 0.415 0.015 0.568 0.063 0.059 1.544 1.462 2.28 2.089l0.019 0.014c0.041 0.031 0.082 0.059 0.122 0.085-0.216 0.307-0.474 0.508-0.736 0.567-0.18 0.04-0.361 0.013-0.542-0.08-0.008-0.003-0.015-0.01-0.024-0.013 0 0 0 0 0 0-0.058-0.032-0.117-0.071-0.175-0.116-0.559-0.439-1.43-1.328-1.438-1.338-0.156-0.16-0.411-0.161-0.569-0.006-0.16 0.156-0.161 0.411-0.006 0.569 0.037 0.037 0.907 0.925 1.506 1.399-0.149 0.204-0.353 0.361-0.573 0.433-0.157 0.052-0.397 0.08-0.638-0.071-0.286-0.179-0.716-0.478-0.951-0.643 0.046-0.386-0.075-0.791-0.367-1.09l-0.005-0.005c-0.167-0.173-0.375-0.291-0.6-0.353 0.149-0.451 0.053-0.969-0.296-1.337l-0.005-0.005c-0.245-0.258-0.574-0.404-0.929-0.412-0.041 0-0.084 0-0.126 0.003-0.026-0.291-0.148-0.577-0.366-0.804l-0.29 0.281l0.285-0.285c-0.246-0.256-0.578-0.399-0.933-0.406-0.356-0.008-0.69 0.128-0.947 0.375l-0.01 0.01c-0.062-0.16-0.155-0.308-0.281-0.438l-0.005-0.005c-0.246-0.256-0.578-0.399-0.933-0.406-0.085-0.001-0.167 0.005-0.25 0.019-0.359-0.428-0.374-0.768-0.392-1.217-0.021-0.523-0.046-1.162-0.69-1.935l4.194-4.194c0.464 0.397 0.83 0.544 1.158 0.678 0.268 0.108 0.508 0.206 0.801 0.441l-0.685 0.694s-0.766 0.778-1.519 1.571c-0.149 0.157-0.147 0.407 0.008 0.562 0.992 0.992 2.042 0.913 2.746 0.671 0.625-0.213 1.345-0.672 1.613-0.851h1.095l1.758 1.608c0.191 0.2 2.678 2.807 3.437 3.46 0.204 0.174 0.129 0.547-0.067 0.786ZM20.362 11.334c-0.479 0.479-0.587 0.889-0.693 1.286-0.134 0.508-0.285 1.077-1.371 2.136-0.487-0.459-1.27-1.255-1.931-1.935 0.222-0.005 0.475-0.036 0.775-0.097 0.218-0.045 0.358-0.258 0.312-0.475-0.045-0.218-0.258-0.359-0.475-0.312-0.938 0.193-1.191 0.028-1.698-0.296-0.049-0.031-0.1-0.064-0.152-0.097l-1.857-1.699c-0.075-0.067-0.17-0.104-0.272-0.104h-1.376c-0.082 0-0.162 0.026-0.231 0.072-0.008 0.006-0.86 0.598-1.519 0.823-0.587 0.201-1.132 0.126-1.618-0.224 0.638-0.669 1.21-1.247 1.216-1.252l1.453-1.468c0.169-0.143 0.258-0.169 0.564-0.169h2.52c0.374 0 1.647-0.052 2.319-0.724l0.053-0.053l4.287 4.287l-0.309 0.309ZM21.738 10.955l-5.185-5.185l1.282-1.282l5.185 5.185l-1.282 1.282Z"></path>
</svg>