<svg viewBox="0 0 24 24" class="blk icn srv-icn mrg_rt clr-lnk" role="presentation" data-use="/cms/svg/site/74yhxrifyt9.24.svg#serv-residency" xmlns="http://www.w3.org/2000/svg">
	<path class="cls-1" d="M23.998 12.644l-0.684 0.698l-11.318-11.079l-5.137 5.022c-0.141 0.137-0.351 0.177-0.532 0.102-0.181-0.077-0.3-0.254-0.3-0.45v-2.77h-1.556v5.249c0 0.13-0.052 0.258-0.146 0.349l-3.641 3.582l-0.685-0.697l3.495-3.439v-5.533c0-0.271 0.219-0.489 0.489-0.489h2.533c0.271 0 0.489 0.219 0.489 0.489v2.099l4.65-4.543c0.19-0.185 0.494-0.185 0.684 0l11.661 11.416ZM20.446 13.624c0.091 0.091 0.142 0.215 0.142 0.345v8.447c0 0.271-0.219 0.489-0.489 0.489h-6.219c-0.271 0-0.489-0.219-0.489-0.489v-5.077h-2.781v5.077c0 0.271-0.219 0.489-0.489 0.489H3.903c-0.271 0-0.489-0.219-0.489-0.489v-8.447c0-0.129 0.051-0.253 0.142-0.345l8.099-8.146c0.184-0.184 0.51-0.184 0.692 0l8.099 8.146ZM19.611 14.169l-7.61-7.655l-7.61 7.655v7.756h5.241v-5.077c0-0.271 0.219-0.489 0.489-0.489h3.758c0.271 0 0.489 0.219 0.489 0.489v5.077h5.241v-7.756Z"></path>
</svg>