<svg viewBox="0 0 24 24" class="blk icn ta_" role="presentation" data-use="/cms/svg/site/74yhxrifyt9.24.svg#val-spanish" xmlns="http://www.w3.org/2000/svg">
	<path d="M21.581 1.382h-10.588c-1.333 0-2.42 1.085-2.42 2.42v8.57c0 1.333 1.085 2.42 2.42 2.42h5.527l3.4 3.517c0.175 0.18 0.411 0.277 0.651 0.277 0.115 0 0.231-0.023 0.341-0.066 0.345-0.139 0.567-0.469 0.567-0.84v-2.887h0.102c1.333 0 2.42-1.085 2.42-2.42v-8.57c0-1.333-1.085-2.42-2.42-2.42ZM23.194 12.372c0 0.89-0.724 1.613-1.613 1.613h-0.504c-0.222 0-0.402 0.18-0.402 0.402v3.291c0 0.045-0.021 0.077-0.063 0.093-0.041 0.018-0.079 0.01-0.111-0.024l-3.517-3.64c-0.076-0.079-0.18-0.122-0.29-0.122h-5.697c-0.89 0-1.613-0.724-1.613-1.613v-8.57c0-0.89 0.724-1.613 1.613-1.613h10.588c0.89 0 1.613 0.724 1.613 1.613v8.57ZM13.615 15.396h0.805v1.008c0 1.333-1.085 2.42-2.42 2.42h-4.52l-3.4 3.517c-0.175 0.18-0.411 0.277-0.651 0.277-0.115 0-0.231-0.023-0.341-0.066-0.345-0.139-0.567-0.469-0.567-0.84v-2.887h-0.102c-1.333 0-2.42-1.085-2.42-2.42v-8.067c0-1.333 1.085-2.42 2.42-2.42h5.545v0.805h-5.545c-0.89 0-1.613 0.724-1.613 1.613v8.067c0 0.89 0.724 1.613 1.613 1.613h0.504c0.222 0 0.402 0.18 0.402 0.402v3.291c0 0.045 0.021 0.077 0.063 0.093 0.041 0.018 0.079 0.01 0.111-0.024l3.517-3.64c0.076-0.079 0.18-0.122 0.29-0.122h4.69c0.89 0 1.613-0.724 1.613-1.613v-1.008ZM12.001 4.91h8.57v0.805h-8.57v-0.805ZM12.001 7.432h8.57v0.805h-8.57v-0.805ZM12.001 9.953h4.033v0.805h-4.033v-0.805Z"></path>
</svg>