<svg fill="none" xmlns="http://www.w3.org/2000/svg" class="app-icon size-19 dimmed-icon"><path d="M10.6228.0692566C10.0062-.00737237 9.5.503681 9.5 1.125c0 .62133.5074 1.11518 1.1204 1.21703 2.8355.4712 5.0664 2.70208 5.5376 5.53764.1019.61292.5957 1.12035 1.217 1.12035.6214 0 1.1324-.5062 1.0558-1.12278-.5064-4.07467-3.7333-7.301578-7.808-7.8079834ZM11.473 7.92177c.2996.54434.7807 1.07824 1.402 1.07824s1.1394-.5116.9847-1.11338c-.4072-1.58474-1.6616-2.83915-3.2463-3.24634C10.0116 4.48567 9.5 5.00368 9.5 5.625c0 .62133.5339 1.10245 1.0782 1.402.3763.20703.6878.51856.8948.89477ZM8.17294 16.6729C9.02725 17.5272 10.1751 18 11.3677 18h.3824c2.475 0 4.5-2.025 4.5-4.5l-4.5-2.25-2.25006 2.25-4.50002-4.49998 2.25001-2.25001L5.00002 2.25C2.52501 2.25.5 4.27501.5 6.75001v.38232c0 1.19269.472862 2.33956 1.32715 3.17297l6.34579 6.3676Z"></path></svg>