<svg width="19" height="14" viewBox="0 0 19 14" fill="none" xmlns="http://www.w3.org/2000/svg" class="app-icon size-19 dimmed-icon"><path fill-rule="evenodd" clip-rule="evenodd" d="M2.75 14c-.59674 0-1.16904-.2458-1.59099-.6834C.737053 12.879.5 12.2855.5 11.6667V2.33333c0-.61884.237053-1.21233.65901-1.649926C1.58096.245809 2.15326 0 2.75 0h13.5c.5967 0 1.169.245809 1.591.683404.4219.437596.659 1.031086.659 1.649926V11c0 1.6569-1.3431 3-3 3H2.75Zm.2925-10.28998 6 3.88888.0225.02331c.12627.08802.27537.13416.4275.13221.16228 0 .32018-.05454.45-.15552l6-3.88888c.1591-.12376.2643-.30805.2925-.51223.0281-.20422-.0232-.41167-.1425-.57668-.0591-.0817-.1331-.15054-.2179-.20261-.0847-.05203-.1785-.08626-.276-.10069-.0555-.00821-.1115-.00992-.1671-.00522-.0421.00356-.084.01082-.1251.02174-.0954.02535-.1851.06993-.2639.13121l-5.55 3.53888-5.55-3.53888c-.0788-.06128-.16846-.10586-.26387-.13121-.09541-.02535-.1947-.03095-.2922-.01652-.09749.01443-.1913.04866-.27606.10069-.08474.05207-.15877.12091-.21787.20261-.0591.0817-.10209.17469-.12654.27362-.02444.09898-.02985.20195-.01593.30306.01393.10107.04694.19839.09712.28626.05017.08787.11656.16468.19535.22597Z"></path></svg>