<svg viewBox="0 0 24 24" class="blk icn ta_" role="presentation" data-use="/cms/svg/site/74yhxrifyt9.24.svg#val-virtual" xmlns="http://www.w3.org/2000/svg">
	<path d="M24 18.099v0.907c0 1.334-1.085 2.42-2.42 2.42h-7.06v-0.805h7.06c0.89 0 1.613-0.724 1.613-1.613v-0.102h-8.673v-0.805h7.162v-11.195c0-0.334-0.272-0.606-0.606-0.606h-10.084v-0.805h10.084c0.778 0 1.411 0.633 1.411 1.411v11.195h1.513ZM14.774 15.017c0.474-0.384 1.197-0.651 1.76-0.651 1.013 0 2.123 0.78 2.123 1.109v1.513h0.805v-1.513c0-0.968-1.676-1.915-2.93-1.915-0.752 0-1.642 0.325-2.265 0.83l0.505 0.626ZM16.538 12.855c-1.039 0-1.915-0.767-1.915-1.674v-0.987c0-0.907 0.877-1.674 1.915-1.674s1.915 0.767 1.915 1.674v0.987c0 0.907-0.877 1.674-1.915 1.674ZM16.538 12.049c0.581 0 1.109-0.414 1.109-0.868v-0.987c0-0.454-0.528-0.868-1.109-0.868s-1.109 0.414-1.109 0.868v0.987c0 0.454 0.528 0.868 1.109 0.868ZM3.53 7.913v-2.017c0-2.018 1.41-3.427 3.426-3.427s3.43 1.41 3.43 3.427v2.017c0 2.018-1.41 3.427-3.426 3.427s-3.43-1.41-3.43-3.427ZM4.336 7.913c0 1.569 1.055 2.622 2.626 2.622s2.621-1.054 2.621-2.622v-2.017c0-1.569-1.055-2.622-2.626-2.622s-2.621 1.054-2.621 2.622v2.017ZM6.951 11.997c-1.308 0-2.989 0.398-4.284 1.013-1.746 0.83-2.667 1.951-2.667 3.244l0.003 5.275h0.805s-0.003-5.275-0.003-5.275c0-1.211 1.2-2.036 2.206-2.515 1.358-0.646 2.957-0.934 3.938-0.934 2.087 0 6.149 1.218 6.151 3.451l0.005 5.275h0.805s-0.005-5.275-0.005-5.275c-0.001-2.833-4.46-4.255-6.957-4.255Z"></path>
</svg>