<svg viewBox="0 0 24 24" class="blk icn icn mrg_bt-20 clr-lnk" role="presentation" data-use="/cms/svg/site/74yhxrifyt9.24.svg#cta-book" xmlns="http://www.w3.org/2000/svg">
	<path d="M0.917 17.066h10.309v0.805H0.917c-0.505 0-0.917-0.412-0.917-0.917V3.036c0-0.505 0.412-0.917 0.917-0.917h2.577v0.805H0.917c-0.063 0-0.113 0.05-0.113 0.113v3.206h18.266v-3.206c0-0.063-0.05-0.113-0.113-0.113h-2.577v-0.805h2.577c0.505 0 0.917 0.412 0.917 0.917v7.216h-0.805v-3.206H0.805v9.907c0 0.063 0.05 0.113 0.113 0.113ZM24 16.953c0 3.349-2.724 6.072-6.072 6.072s-6.072-2.724-6.072-6.072 2.724-6.072 6.072-6.072 6.072 2.724 6.072 6.072ZM23.194 16.953c0-2.904-2.363-5.268-5.268-5.268s-5.268 2.363-5.268 5.268 2.363 5.268 5.268 5.268 5.268-2.363 5.268-5.268ZM17.862 16.917l-1.755-1.316l-0.483 0.644l2.062 1.546c0.072 0.054 0.157 0.08 0.242 0.08 0.116 0 0.231-0.05 0.309-0.144l2.577-3.093l-0.619-0.515l-2.332 2.799ZM15.753 0.975h-0.805v3.093h0.805V0.975ZM14.319 2.119h-8.762v0.805h8.762v-0.805ZM4.929 0.975h-0.805v3.093h0.805V0.975ZM7.618 8.82h-1.546v0.805h1.546v-0.805ZM10.195 8.82h-1.546v0.805h1.546v-0.805ZM12.772 9.625v-0.805h-1.546v0.805h1.546ZM15.35 9.625v-0.805h-1.546v0.805h1.546ZM5.041 11.397h-1.546v0.805h1.546v-0.805ZM7.618 11.397h-1.546v0.805h1.546v-0.805ZM10.195 11.397h-1.546v0.805h1.546v-0.805ZM12.772 11.397h-1.546v0.805h1.546v-0.805ZM3.494 14.779h1.546v-0.805h-1.546v0.805ZM6.072 14.779h1.546v-0.805h-1.546v0.805ZM8.649 14.779h1.546v-0.805h-1.546v0.805Z"></path>
</svg>