<svg viewBox="0 0 36 36" class="blk icn " role="presentation" data-use="/cms/svg/site/74yhxrifyt9.36.2508141034598.svg#youtube" xmlns="http://www.w3.org/2000/svg">
	<path d="M32.628 30.375q-7.805 1.124-14.626 1.124-3.024 0-6.681-0.28t-5.801-0.562l-2.144-0.28q-0.948-0.176-1.67-1.318t-1.056-2.76-0.492-3.024-0.158-2.566v-5.415q0-8.965 3.376-9.669 7.805-1.124 14.626-1.124 3.024 0 6.681 0.28t5.801 0.562l2.144 0.28q1.02 0.14 1.74 1.284t1.036 2.796 0.456 3.024 0.14 2.566v5.415q0 1.266-0.104 2.566t-0.422 2.988-1.056 2.812-1.792 1.3zM24.365 17.12l-9.213-5.625q-0.388-0.352-1.02-0.192t-0.632 0.51v12.377q0 0.388 0.632 0.528t1.02-0.212l9.213-5.625q0.388-0.352 0.388-0.88t-0.388-0.88z"></path>
</svg>